<?xml version="1.0" encoding="utf-8"?>
<!-- Generator: Adobe Illustrator 18.0.0, SVG Export Plug-In . SVG Version: 6.00 Build 0)  -->
<!DOCTYPE svg PUBLIC "-//W3C//DTD SVG 1.1//EN" "http://www.w3.org/Graphics/SVG/1.1/DTD/svg11.dtd">
<svg version="1.1" id="Layer_1" xmlns="http://www.w3.org/2000/svg" xmlns:xlink="http://www.w3.org/1999/xlink" x="0px" y="0px"
	 viewBox="0 0 812 768" enable-background="new 0 0 812 768" xml:space="preserve">
<g>
	<g>
		<polygon points="87.8,181 87.8,222.7 87.8,447.6 87.8,649.5 155.9,680.2 225,649.5 225,508 362.1,445.4 362.1,344.5 225,407 
			225,282 362.1,220.5 362.1,118.5 293,87.8 		"/>
		<polygon fill="#00DCEC" points="225,282 225,344.5 225,407 362.1,344.5 		"/>
	</g>
	<g>
		<polygon points="449.9,181 449.9,222.7 449.9,447.6 449.9,649.5 519,680.2 587,649.5 587,508 724.2,445.4 724.2,344.5 587,407 
			587,282 724.2,220.5 724.2,118.5 656.1,87.8 		"/>
		<polygon fill="#00DCEC" points="587,282 587,344.5 587,407 724.2,344.5 		"/>
	</g>
</g>
</svg>
